# xmcd CD database file
#
# Track frame offsets:
#	150
#	27510
#	47025
#	68110
#	108748
#	139122
#	165638
#	189141
#	217638
#	242339
#	269193
#
# Disc length: 3985 seconds
#
# Revision: 0
# Processed by: cddbd v1.5PL3 Copyright (c) Steve Scherf et al.
# Submitted via: CDex 1.51
#
DISCID=990f8f0b
DTITLE=Ornette Coleman - Giants of Jazz - Free
DYEAR=1959
DGENRE=Jazz
TTITLE0=Chronology
TTITLE1=Eventually
TTITLE2=Change of the century
TTITLE3=Peace
TTITLE4=Congeniality
TTITLE5=Monk and the nun
TTITLE6=Forerunner
TTITLE7=Free
TTITLE8=Music always
TTITLE9=Una muy bonita
TTITLE10=Ramblin
EXTD=YEAR: 1959
EXTT0=
EXTT1=
EXTT2=
EXTT3=
EXTT4=
EXTT5=
EXTT6=
EXTT7=
EXTT8=
EXTT9=
EXTT10=
PLAYORDER=
